Coordinates
version=1
nRows=17
nColumns=40
inDegrees=yes

Units are S.I. units (second, meters, Newtons, ...)
If the header above contains a line with 'inDegrees', this indicates whether rotational values are in degrees (yes) or radians (no).

endheader
time	pelvis_tilt	pelvis_list	pelvis_rotation	pelvis_tx	pelvis_ty	pelvis_tz	hip_flexion_r	hip_adduction_r	hip_rotation_r	knee_angle_r	knee_angle_r_beta	ankle_angle_r	subtalar_angle_r	mtp_angle_r	hip_flexion_l	hip_adduction_l	hip_rotation_l	knee_angle_l	knee_angle_l_beta	ankle_angle_l	subtalar_angle_l	mtp_angle_l	lumbar_extension	lumbar_bending	lumbar_rotation	arm_flex_r	arm_add_r	arm_rot_r	elbow_flex_r	pro_sup_r	wrist_flex_r	wrist_dev_r	arm_flex_l	arm_add_l	arm_rot_l	elbow_flex_l	pro_sup_l	wrist_flex_l	wrist_dev_l
      3.25000000	    -32.50575137	     -1.68013049	     -2.11531230	     -0.39946190	      0.63349343	     -0.90016581	     91.72195708	     -9.10371950	     -5.15796905	     92.79444520	      1.61956860	     35.61704080	      0.00000000	      0.00000000	     92.22886336	    -19.00072662	     -0.34030964	     93.17049645	      1.62613193	     34.94585260	      0.00000000	      0.00000000	     -7.54094531	    -14.30574275	     -6.80337354	     10.11561404	    -39.77538609	     77.39277922	     83.94274669	      4.11543950	      0.00000000	      0.00000000	      8.74318343	    -60.53882315	     78.74795905	    105.13134837	     88.02822866	      0.00000000	      0.00000000
      3.25500000	    -32.53623390	     -1.68774160	     -2.11810814	     -0.39944024	      0.63347419	     -0.90014948	     91.74810166	     -9.10095878	     -5.16639246	     92.79378976	      1.61955716	     35.61111756	      0.00000000	      0.00000000	     92.26325164	    -18.98371664	     -0.30456049	     93.16402187	      1.62601893	     35.00547363	      0.00000000	      0.00000000	     -7.30029954	    -14.31106863	     -6.42978330	      9.71243246	    -39.81035094	     77.02062336	     83.98292093	      3.21846961	      0.00000000	      0.00000000	     10.31892299	    -60.40405443	     80.53980470	    105.02239058	     87.81811976	      0.00000000	      0.00000000
      3.26000000	    -32.51120873	     -1.64568167	     -2.10592859	     -0.39930814	      0.63363411	     -0.90019474	     91.71219755	     -9.11813304	     -5.12403835	     92.79880957	      1.61964477	     35.63072725	      0.00000000	      0.00000000	     92.18782382	    -18.94674725	     -0.34391239	     93.14083147	      1.62561418	     35.02004537	      0.00000000	      0.00000000	     -7.52936379	    -14.35066059	     -6.82064704	     10.10364636	    -39.72614822	     77.37021287	     83.97415309	      3.14013673	      0.00000000	      0.00000000	      8.73376568	    -60.55118379	     78.73767215	    105.11682217	     87.82765179	      0.00000000	      0.00000000
      3.26500000	    -32.51145866	     -1.64905448	     -2.11189557	     -0.39920448	      0.63369100	     -0.90013733	     91.68655041	     -9.08044518	     -5.11629079	     92.77806415	      1.61928269	     35.80540873	      0.00000000	      0.00000000	     92.16546011	    -18.95716948	     -0.35313063	     93.12613390	      1.62535766	     35.17379735	      0.00000000	      0.00000000	     -7.65304711	    -14.34871849	     -7.04722748	     10.25203319	    -39.65856454	     77.41723886	     83.89446729	      3.67088521	      0.00000000	      0.00000000	      7.60543160	    -60.63891283	     77.38648653	    105.15567910	     87.96487068	      0.00000000	      0.00000000
      3.27000000	    -32.54514241	     -1.66154511	     -2.15516395	     -0.39923646	      0.63364882	     -0.90011155	     91.72652033	     -9.03498015	     -5.11261695	     92.76882356	      1.61912141	     35.61028155	      0.00000000	      0.00000000	     92.22338460	    -18.96789931	     -0.28389189	     93.14620051	      1.62570788	     35.02752202	      0.00000000	      0.00000000	     -7.34371014	    -14.33621490	     -6.58077221	      9.93545511	    -39.79390270	     77.25186736	     84.02311079	      3.12779675	      0.00000000	      0.00000000	      9.58247961	    -60.48107399	     79.70961641	    105.08545210	     87.78717791	      0.00000000	      0.00000000
      3.27500000	    -32.54617229	     -1.68198529	     -2.11543004	     -0.39916715	      0.63373322	     -0.90016842	     91.71088595	     -9.08067366	     -5.14395766	     92.74992444	      1.61879156	     35.60912850	      0.00000000	      0.00000000	     92.21264188	    -18.90452883	     -0.24066537	     93.12488041	      1.62533578	     34.98162444	      0.00000000	      0.00000000	     -7.46868318	    -14.31259550	     -6.84669807	     10.15852131	    -39.72380432	     77.43878801	     83.94217668	      3.28616006	      0.00000000	      0.00000000	      8.61753785	    -60.56381775	     78.59783505	    105.12396576	     87.87005281	      0.00000000	      0.00000000
      3.28000000	    -32.57163245	     -1.69810689	     -2.14675172	     -0.39907269	      0.63376977	     -0.90006489	     91.70974749	     -9.03289785	     -5.15806744	     92.73144308	      1.61846900	     35.65539328	      0.00000000	      0.00000000	     92.22797127	    -18.92045509	     -0.19455806	     93.10085971	      1.62491654	     35.04997330	      0.00000000	      0.00000000	     -7.56185087	    -14.28983993	     -7.07035266	     10.40514212	    -39.66375104	     77.68083373	     83.93796105	      3.48347883	      0.00000000	      0.00000000	      7.36584048	    -60.63803431	     77.18857286	    105.13126387	     87.95964193	      0.00000000	      0.00000000
      3.28500000	    -32.79437055	     -2.04308939	     -2.10349249	     -0.39947385	      0.63334821	     -0.89998587	     91.83975802	     -8.99058591	     -5.49174381	     92.67398511	      1.61746617	     35.64473477	      0.00000000	      0.00000000	     92.70016820	    -18.89637277	      0.22974990	     93.13380163	      1.62549148	     34.95404216	      0.00000000	      0.00000000	     -6.96726658	    -13.91179427	     -6.45612727	      9.78586040	    -39.85515368	     77.15063855	     83.98925252	      3.19457773	      0.00000000	      0.00000000	     10.14264336	    -60.37880575	     80.37520754	    105.03471373	     87.81201770	      0.00000000	      0.00000000
      3.29000000	    -32.59439522	     -1.77257999	     -2.12815878	     -0.39903417	      0.63375884	     -0.90007479	     91.68538044	     -9.02720756	     -5.22501448	     92.70770537	      1.61805470	     35.71718227	      0.00000000	      0.00000000	     92.28570067	    -18.89245343	     -0.10331986	     93.09779010	      1.62486296	     35.11092868	      0.00000000	      0.00000000	     -7.51848237	    -14.20567047	     -7.14518862	     10.57231185	    -39.67974394	     77.93453411	     83.83577302	      4.74896585	      0.00000000	      0.00000000	      7.27674124	    -60.66069372	     77.11652634	    105.17270196	     88.09868026	      0.00000000	      0.00000000
      3.29500000	    -32.61375028	     -1.73615845	     -2.15154562	     -0.39895388	      0.63383728	     -0.90008449	     91.71835734	     -9.00269921	     -5.17365486	     92.69447711	      1.61782382	     35.58988530	      0.00000000	      0.00000000	     92.27313969	    -18.91072064	     -0.14238989	     93.11177127	      1.62510698	     35.00230543	      0.00000000	      0.00000000	     -7.64934566	    -14.25301793	     -7.40973836	     10.85033309	    -39.60537540	     78.18459954	     83.89787819	      3.24882116	      0.00000000	      0.00000000	      6.12400422	    -60.71311534	     75.84461147	    105.25075509	     87.83047932	      0.00000000	      0.00000000
      3.30000000	    -32.58348874	     -1.73941444	     -2.13535538	     -0.39884044	      0.63390087	     -0.90010399	     91.67208396	     -9.02237232	     -5.18433193	     92.68818418	      1.61771399	     35.62064946	      0.00000000	      0.00000000	     92.23745515	    -18.89656148	     -0.14644763	     93.10471735	      1.62498387	     35.03759892	      0.00000000	      0.00000000	     -7.80949253	    -14.24416890	     -7.63818648	     11.04229303	    -39.58737148	     78.33778723	     83.90551035	      4.11486282	      0.00000000	      0.00000000	      5.10475904	    -60.78771916	     74.64766707	    105.31476895	     88.05589626	      0.00000000	      0.00000000
      3.30500000	    -32.62578669	     -1.77062266	     -2.15787510	     -0.39895158	      0.63380189	     -0.90010933	     91.70798712	     -8.98257132	     -5.20290906	     92.70234329	      1.61796111	     35.67892803	      0.00000000	      0.00000000	     92.30202666	    -18.89214232	     -0.07733699	     93.11460989	      1.62515652	     35.01143611	      0.00000000	      0.00000000	     -7.09458038	    -14.23169386	     -6.41377073	      9.75457361	    -39.79191855	     77.09110762	     83.92539729	      3.22673225	      0.00000000	      0.00000000	     10.31767075	    -60.41009242	     80.53344715	    105.04577185	     87.82266429	      0.00000000	      0.00000000
      3.31000000	    -32.63249331	     -1.81494865	     -2.17304261	     -0.39886272	      0.63384056	     -0.90005712	     91.68669538	     -8.96584487	     -5.26187038	     92.67792481	      1.61753493	     35.66153530	      0.00000000	      0.00000000	     92.33059047	    -18.90735159	     -0.01427686	     93.11592686	      1.62517951	     35.04187238	      0.00000000	      0.00000000	     -7.24985269	    -14.17614641	     -6.73007567	     10.14462247	    -39.73171892	     77.50873236	     83.89433907	      3.42626646	      0.00000000	      0.00000000	      8.87369656	    -60.51588560	     78.85581266	    105.11097960	     87.90002154	      0.00000000	      0.00000000
      3.31500000	    -32.60864151	     -1.78637400	     -2.15528836	     -0.39878626	      0.63389440	     -0.90013323	     91.66891169	     -8.99578781	     -5.23448816	     92.70172331	      1.61795029	     35.68918468	      0.00000000	      0.00000000	     92.27575016	    -18.87350911	     -0.04252371	     93.10902109	      1.62505898	     35.08324172	      0.00000000	      0.00000000	     -7.15177349	    -14.21258316	     -6.51871391	      9.85831315	    -39.76406815	     77.19503069	     83.90303817	      3.17258506	      0.00000000	      0.00000000	      9.87336434	    -60.43743363	     79.97734628	    105.05616474	     87.81226523	      0.00000000	      0.00000000
      3.32000000	    -32.61895891	     -1.78790868	     -2.18070323	     -0.39873455	      0.63390734	     -0.90008998	     91.68003561	     -8.96746825	     -5.23236982	     92.68945426	      1.61773616	     35.60210180	      0.00000000	      0.00000000	     92.30557392	    -18.90974854	     -0.05241045	     93.14554075	      1.62569637	     35.01535833	      0.00000000	      0.00000000	     -7.22412904	    -14.21843931	     -6.69433611	     10.08904058	    -39.70164330	     77.42676342	     83.83358519	      3.56154163	      0.00000000	      0.00000000	      9.04475182	    -60.49756279	     79.05264777	    105.08227120	     87.94522990	      0.00000000	      0.00000000
      3.32500000	    -32.64328633	     -1.81002199	     -2.21148929	     -0.39874675	      0.63389501	     -0.90002312	     91.68866324	     -8.91394265	     -5.24323070	     92.67225214	      1.61743593	     35.66201150	      0.00000000	      0.00000000	     92.31770423	    -18.95515649	     -0.02306366	     93.12466428	      1.62533201	     35.06302273	      0.00000000	      0.00000000	     -6.99983820	    -14.20095092	     -6.30932554	      9.69225965	    -39.77051531	     77.04449982	     83.87209546	      3.22612519	      0.00000000	      0.00000000	     10.51821013	    -60.38212102	     80.71506556	    105.03608688	     87.83921221	      0.00000000	      0.00000000
      3.33000000	    -32.59616068	     -1.80650654	     -2.17625353	     -0.39865833	      0.63395514	     -0.90012296	     91.63660191	     -8.96715440	     -5.23936692	     92.69454891	      1.61782508	     35.63752556	      0.00000000	      0.00000000	     92.26014183	    -18.90169172	     -0.02759471	     93.12352017	      1.62531204	     35.06370951	      0.00000000	      0.00000000	     -6.98790905	    -14.20196773	     -6.26506187	      9.70431138	    -39.79234479	     77.16385659	     83.87702523	      3.29741237	      0.00000000	      0.00000000	     10.92788863	    -60.34942117	     81.16517602	    105.03372113	     87.81437225	      0.00000000	      0.00000000
